# xmcd
#
# Track frame offsets: 
#        150
#        18815
#        37812
#        55640
#        72912
#        90862
#        108290
#        126485
#        144370
#        162362
#        180117
#        198775
#        216710
#        235120
#        253280
#        271792
#        290272
#        308410
#
# Disc length: 4377 seconds
#
# Revision: 2
# Processed by: cddbd v1.5.2PL0 Copyright (c) Steve Scherf et al.
# Submitted via: ExactAudioCopy v0.99pb5
#
DISCID=e9111712
DTITLE=Various Artist - Super Eurobeat 159
DYEAR=2005
DGENRE=Eurobeat
TTITLE0=Lolita - Loving Tonight
TTITLE1=Melissa White - Fine
TTITLE2=Franz Tornado and Bazooka Girl - Motto-Motto Inamoto (Caballer
TTITLE2=o Remix)
TTITLE3=Stylophones - Never Say Goodbye
TTITLE4=Vicky Vale - My Body Sweat
TTITLE5=Sophie - Eternal Symphony
TTITLE6=Karen - Love Forever
TTITLE7=Madison - Special Love
TTITLE8=J.A.F. - Beat On
TTITLE9=Ricky M. - Love Is Power
TTITLE10=Betty Blue - Changes
TTITLE11=Cody - Solid Rock
TTITLE12=Brian Ice - I Believe In Lovin' You
TTITLE13=Priscilla - Dancing Days
TTITLE14=Go Go Girls - Nothing Can Stop The Music
TTITLE15=Neo - Go Go Money
TTITLE16=Dave and Nuage - Don't Make Me Cry
TTITLE17=Go 2 - Funky Funlover
EXTD=YEAR: 2005
EXTT0=
EXTT1=
EXTT2=
EXTT3=
EXTT4=
EXTT5=
EXTT6=
EXTT7=
EXTT8=
EXTT9=
EXTT10=
EXTT11=
EXTT12=
EXTT13=
EXTT14=
EXTT15=
EXTT16=
EXTT17=
PLAYORDER=
